<mxfile host="app.diagrams.net" modified="2021-09-29T06:01:14.654Z" agent="5.0 (Windows NT 10.0; Win64; x64) AppleWebKit/537.36 (KHTML, like Gecko) Chrome/94.0.4606.61 Safari/537.36" etag="ehbHG3xBijZVpqDziVp2" version="15.3.4" type="github">
  <diagram id="pwnf9g1trjCuy-K-fAyj" name="第 1 页">
    <mxGraphModel dx="782" dy="436" grid="1" gridSize="10" guides="1" tooltips="1" connect="1" arrows="1" fold="1" page="1" pageScale="1" pageWidth="1169" pageHeight="827" math="0" shadow="0">
      <root>
        <mxCell id="0" />
        <mxCell id="1" parent="0" />
        <mxCell id="XK6ZZiK8MCnQ35ZJZ_r6-1" value="" style="whiteSpace=wrap;html=1;aspect=fixed;hachureGap=4;pointerEvents=0;" vertex="1" parent="1">
          <mxGeometry x="110" y="364" width="80" height="80" as="geometry" />
        </mxCell>
        <mxCell id="XK6ZZiK8MCnQ35ZJZ_r6-2" value="" style="whiteSpace=wrap;html=1;aspect=fixed;hachureGap=4;pointerEvents=0;" vertex="1" parent="1">
          <mxGeometry x="120" y="374" width="80" height="80" as="geometry" />
        </mxCell>
        <mxCell id="XK6ZZiK8MCnQ35ZJZ_r6-3" value="Class文件" style="whiteSpace=wrap;html=1;aspect=fixed;hachureGap=4;pointerEvents=0;" vertex="1" parent="1">
          <mxGeometry x="130" y="384" width="80" height="80" as="geometry" />
        </mxCell>
        <mxCell id="XK6ZZiK8MCnQ35ZJZ_r6-5" value="" style="html=1;shadow=0;dashed=0;align=center;verticalAlign=middle;shape=mxgraph.arrows2.arrow;dy=0.6;dx=40;notch=0;hachureGap=4;pointerEvents=0;" vertex="1" parent="1">
          <mxGeometry x="240" y="394" width="110" height="40" as="geometry" />
        </mxCell>
        <mxCell id="XK6ZZiK8MCnQ35ZJZ_r6-7" value="类加载子系统" style="swimlane;hachureGap=4;pointerEvents=0;" vertex="1" parent="1">
          <mxGeometry x="370" y="309.5" width="660" height="229.5" as="geometry">
            <mxRectangle x="320" y="300" width="130" height="23" as="alternateBounds" />
          </mxGeometry>
        </mxCell>
        <mxCell id="XK6ZZiK8MCnQ35ZJZ_r6-8" value="" style="rounded=0;whiteSpace=wrap;html=1;hachureGap=4;pointerEvents=0;" vertex="1" parent="XK6ZZiK8MCnQ35ZJZ_r6-7">
          <mxGeometry x="30" y="46.75" width="100" height="163.25" as="geometry" />
        </mxCell>
        <mxCell id="XK6ZZiK8MCnQ35ZJZ_r6-9" value="初始化阶段" style="rounded=0;whiteSpace=wrap;html=1;hachureGap=4;pointerEvents=0;" vertex="1" parent="XK6ZZiK8MCnQ35ZJZ_r6-7">
          <mxGeometry x="480" y="84.5" width="120" height="60" as="geometry" />
        </mxCell>
        <mxCell id="XK6ZZiK8MCnQ35ZJZ_r6-10" value="链接阶段" style="rounded=0;whiteSpace=wrap;html=1;hachureGap=4;pointerEvents=0;" vertex="1" parent="XK6ZZiK8MCnQ35ZJZ_r6-7">
          <mxGeometry x="250" y="50.5" width="110" height="159.5" as="geometry" />
        </mxCell>
        <mxCell id="XK6ZZiK8MCnQ35ZJZ_r6-11" value="加载阶段" style="text;html=1;strokeColor=none;fillColor=none;align=center;verticalAlign=middle;whiteSpace=wrap;rounded=0;hachureGap=4;pointerEvents=0;" vertex="1" parent="XK6ZZiK8MCnQ35ZJZ_r6-7">
          <mxGeometry x="50" y="59" width="60" height="25.5" as="geometry" />
        </mxCell>
        <mxCell id="XK6ZZiK8MCnQ35ZJZ_r6-12" value="启动类加载器" style="rounded=0;whiteSpace=wrap;html=1;hachureGap=4;pointerEvents=0;" vertex="1" parent="XK6ZZiK8MCnQ35ZJZ_r6-7">
          <mxGeometry x="40" y="88.5" width="80" height="31.5" as="geometry" />
        </mxCell>
        <mxCell id="XK6ZZiK8MCnQ35ZJZ_r6-13" value="拓展类加载器" style="rounded=0;whiteSpace=wrap;html=1;hachureGap=4;pointerEvents=0;" vertex="1" parent="XK6ZZiK8MCnQ35ZJZ_r6-7">
          <mxGeometry x="40" y="134.5" width="80" height="25.5" as="geometry" />
        </mxCell>
        <mxCell id="XK6ZZiK8MCnQ35ZJZ_r6-14" value="用户类加载器" style="rounded=0;whiteSpace=wrap;html=1;hachureGap=4;pointerEvents=0;" vertex="1" parent="XK6ZZiK8MCnQ35ZJZ_r6-7">
          <mxGeometry x="40" y="169.5" width="80" height="30.5" as="geometry" />
        </mxCell>
      </root>
    </mxGraphModel>
  </diagram>
</mxfile>
